<svg xmlns="http://www.w3.org/2000/svg" width="1152" height="1152" version="1.2"><path fill-rule="evenodd" d="M512.5 63.66c4.4.23 11.83.9 16.5 1.49 4.67.58 11.65 1.69 15.5 2.47s12.17 3.07 18.5 5.08 17.35 6.62 24.51 10.23c7.15 3.61 16.83 9.1 21.5 12.2s12.54 9.19 17.49 13.55 11.92 11.5 15.5 15.87 12.22 13.8 19.21 20.95 12.73 13.56 12.75 14.25c.03.78-.8 1.06-2.21.75-1.24-.28-4.05-.8-6.25-1.16-3.36-.56-3.82-.44-2.9.75.6.77 3.36 4.34 6.12 7.91 2.77 3.57 6.8 9.43 8.97 13s6.44 11.23 9.49 17 6.39 12.63 7.43 15.24 1.55 4.98 1.14 5.25c-.41.28-3.24-1.18-6.29-3.24-3.04-2.06-5.72-3.52-5.96-3.25-.23.27 1.16 3.43 3.09 7 1.94 3.57 5.92 11.45 8.86 17.5s5.96 12.9 6.7 15.22 1.02 4.57.62 5c-.39.43-2.87-1.36-5.5-3.97-2.62-2.61-4.9-4.41-5.05-4s1.95 6.83 4.67 14.25c2.71 7.42 6.13 18.23 7.58 24s2.5 10.63 2.34 10.78c-.17.16-1.78-1.87-3.57-4.5-1.8-2.63-4.38-6.13-5.75-7.78-1.36-1.65-2.49-2.77-2.49-2.5-.01.27.63 2.75 1.42 5.5.8 2.75 3.08 13.1 5.08 23 2.48 12.28 4.66 20.22 6.86 25 1.77 3.85 5.01 8.81 7.18 11.02 2.18 2.21 10.04 7.8 17.46 12.41s17.33 10.95 22 14.08c4.67 3.12 14.12 10.17 21 15.66 6.87 5.49 18.53 15.79 25.9 22.9s17.3 17.43 22.07 22.93c4.78 5.5 12.92 15.47 18.11 22.15 5.18 6.68 12.16 15.9 15.51 20.5 3.35 4.59 10.14 14.43 15.08 21.85 4.95 7.42 11.94 18.23 15.52 24 3.59 5.77 11.17 18.83 16.84 29 5.68 10.17 15.15 28.4 21.05 40.5s13.21 27.85 16.24 35 7.29 17.73 9.48 23.5c2.18 5.77 5.77 16.13 7.99 23 2.21 6.88 5.05 16.55 6.31 21.5 1.77 6.93 2.31 11.87 2.35 21.5.04 9.53-.37 13.63-1.7 17.25-1.56 4.22-1.59 5-.28 7 .81 1.24 3.75 5.17 6.54 8.75 2.78 3.58 7.07 10.55 9.52 15.5s5.14 11.7 5.97 15 1.5 7.35 1.48 9c-.01 1.65-.84 4.8-1.83 7s-3.35 5.29-5.23 6.88c-3.14 2.64-3.9 2.83-9.42 2.37-4.41-.37-10.11-2.26-21.5-7.12-8.53-3.64-15.59-6.51-15.69-6.38-.11.14 4.48 7 10.19 15.25s13.22 19.16 23 33.51H985c8.53 0 20.45-.49 26.5-1.09 6.05-.59 17.53-2.37 25.5-3.94s19.22-3.99 25-5.39c5.78-1.39 13.97-3.1 18.21-3.81 4.23-.7 7.95-1.06 8.26-.78.3.28.33 1.17.07 2-.27.83-4.43 3.38-9.26 5.68s-17.22 6.91-27.53 10.25-18.75 6.41-18.75 6.82 12.15.41 54-.75l1.11 2.25c.81 1.65.81 4.33 0 10-.61 4.26-1.1 10.11-1.09 13 .01 3.88-.51 5.84-2 7.5-1.11 1.24-3.03 2.25-4.27 2.25s-8.33.49-15.75 1.09-25.48 1.39-66.74 2.41l21.44 31.5c11.79 17.33 28.09 41.85 36.23 54.5s17.26 27.28 20.26 32.5c3.01 5.22 6.94 13.1 8.75 17.5 2.66 6.47 3.38 9.82 3.8 17.5.42 7.67.1 11.14-1.64 18-1.19 4.67-3.39 10.91-4.88 13.87-1.5 2.95-4.97 7.46-7.72 10.03-3.21 3-6.97 5.33-10.5 6.52-4.15 1.4-7.33 1.74-13 1.37-4.99-.32-9.59-1.38-13.75-3.14-3.44-1.46-8.16-3.84-10.5-5.29-3.97-2.47-4.32-2.53-5.25-.87-.55.98-2.13 3.13-3.5 4.78-1.38 1.65-4.53 4.18-7 5.62-3.6 2.09-5.8 2.61-11 2.6-4.38 0-8.46-.76-12.5-2.32-3.3-1.27-8.21-3.74-15.83-8.67l-5.08 5.07c-3.37 3.36-6.78 5.64-10.09 6.76-2.75.93-6.8 1.69-9 1.69-2.2-.01-6.7-.72-10-1.58s-8.03-2.67-10.5-4.02c-2.47-1.34-7.09-4.47-10.25-6.93-3.16-2.47-8-7.53-10.76-11.24-2.75-3.71-7.43-11.7-10.38-17.75-2.96-6.05-12.59-28.1-21.39-49s-18.7-44.08-21.99-51.5-9.49-20.92-13.79-30c-4.29-9.08-8.78-18.08-9.96-20-2.05-3.34-2.55-3.56-10.57-4.73-4.62-.67-18.54-2.57-30.91-4.22-12.38-1.65-31.39-3.91-42.25-5.03-10.86-1.11-24.03-2.02-38.75-2.02l-.48 2.75c-.26 1.51-1.39 3.99-2.5 5.5s-2.58 2.76-3.27 2.77c-.69 0-1.92.42-2.75.92-1.33.8-1.33 1.08 0 2.53.83.89 3.08 1.87 5 2.18 2.09.33 5.21-.09 7.75-1.05 2.34-.88 5.15-2.72 6.25-4.1 1.1-1.37 2.22-2.5 2.5-2.5s.5 1.35.5 3-.9 4.8-2 7c-1.25 2.5-3.78 5.13-6.75 7.01-3.94 2.51-5.77 3.01-10.75 2.99-4.21-.01-7.49-.73-11-2.4-2.75-1.3-7.59-4.67-10.75-7.49-5.44-4.83-5.75-4.97-5.75-2.61 0 1.66 1.84 4.43 5.46 8.25 3 3.16 5.47 6.31 5.5 7 .02.69-.75 1.49-1.71 1.78s-4.22-.21-7.25-1.11-7.3-2.88-9.5-4.39c-2.2-1.52-6.59-5.52-9.75-8.89q-5.75-6.14-5.76-4.39c-.01.96 1.53 4.22 3.42 7.25s3.24 5.84 3.01 6.25-1.66.47-3.17.12c-1.51-.34-5.9-2.26-9.75-4.25-3.93-2.03-9.4-6.04-12.5-9.14-3.02-3.04-6.63-7.94-10.5-16.27l-14.5.65c-7.97.36-23.67 1.44-34.88 2.4s-20.51 2.19-20.67 2.74-.59 2.35-.97 4c-.37 1.65-2.32 4.63-4.33 6.63-2.05 2.03-5.41 4.09-7.65 4.68-2.56.68-4.9.73-6.5.13-2.13-.8-1.98-.49 1 2.07 1.92 1.66 4.63 3.06 6 3.11 1.38.06 3.63.02 5-.09 1.38-.1 4.08-1.07 6-2.14 1.92-1.08 3.72-1.72 4-1.43s-.17 1.95-1 3.69-2.96 4.44-4.75 6.01c-1.79 1.56-5.16 3.32-7.5 3.9-3 .75-5.72.75-9.25 0-2.75-.59-7.1-2.53-9.66-4.32-2.56-1.78-6.72-4.93-9.25-6.99-4.55-3.71-4.62-3.73-9.88-.25l6.23 5.5c5.44 4.8 6.03 5.66 4.65 6.75-1.04.82-3.07 1.03-5.84.62-2.34-.35-6.72-1.49-9.75-2.54-3.03-1.04-8.42-3.63-12-5.75s-8.55-6.05-11.06-8.72-4.98-5.69-5.5-6.71c-.9-1.77-1.56-1.72-15.94 1.31-8.25 1.74-17.48 3.83-20.5 4.63-4.61 1.23-6.64 2.61-19.5 15.46l.31 10.72c.24 8.04-.22 13.36-1.83 21.23-1.18 5.78-3.25 13.2-4.59 16.5-1.35 3.3-4.33 9.15-6.61 13-2.29 3.85-7.34 10.15-11.23 14-3.88 3.85-10.88 9.53-15.56 12.63-4.67 3.09-12.99 7.88-18.49 10.64-5.5 2.75-13.49 6.41-17.75 8.12s-8.42 2.89-9.25 2.61c-1.18-.39-1.5-2.36-1.5-9.25 0-4.81.64-13.92 1.42-20.25s2.16-14.65 3.06-18.5c.89-3.85 2.99-10.37 4.66-14.5 1.67-4.12 4.53-9.75 6.35-12.5 1.83-2.75 5.72-7.43 8.66-10.4 2.94-2.96 8.73-7.58 12.85-10.25 4.49-2.9 11.11-6.01 16.5-7.74 4.95-1.59 10.52-3.28 12.37-3.75 2.32-.59 5.43-3.11 16.63-15.38l-13.5 2.96c-7.42 1.62-19.35 4.56-26.5 6.53s-22.45 6.75-34 10.62-26.4 9.3-33 12.07-20.1 8.97-30 13.77-24.3 12.53-32 17.19c-7.7 4.65-17.6 11.11-22 14.34s-15.2 13.11-24.01 21.96c-9.12 9.17-21.91 23.49-29.75 33.33-8.51 10.68-14.41 17.24-15.49 17.22-.96-.01-4-1.47-6.75-3.25-2.75-1.77-7.38-5.02-10.3-7.22-2.91-2.2-5.49-5.01-5.75-6.25-.33-1.65.82-3.65 4.32-7.5 2.63-2.89 7.68-8.85 11.22-13.25s10.08-12.28 14.52-17.5c4.45-5.22 10.49-12.65 13.44-16.5 2.94-3.85 5.85-7.58 6.45-8.3.77-.9-.86-.72-5.4.62-3.58 1.06-12.8 3.99-20.5 6.52-7.7 2.52-16.7 5.3-20 6.17-3.3.86-9.6 1.99-14 2.49-4.64.53-11.15.55-15.5.05-4.12-.48-12-2.28-17.5-4s-10.58-3.68-11.29-4.34c-.72-.67-1.28-1.77-1.25-2.46.02-.69 3.08-3.23 6.79-5.66s10.8-6.27 15.75-8.55 11.92-5.05 15.5-6.15 9.65-2.69 13.5-3.52c3.85-.84 16.23-1.92 27.5-2.4s24.44-1.58 29.25-2.42c4.81-.85 12.46-2.73 17-4.17 4.54-1.45 10.73-3.72 13.75-5.05s15.17-7.53 27-13.78c11.83-6.24 30.58-15.56 41.68-20.7 11.09-5.14 19.98-9.69 19.75-10.1-.24-.41-3.47-1.71-7.18-2.89-3.71-1.17-15.08-5.51-25.25-9.63s-21.65-8.73-25.5-10.24c-3.85-1.5-8.35-3.04-10-3.41-2.64-.59-4.25.25-13.53 7.12-5.79 4.29-14.12 9.67-18.5 11.96-4.38 2.28-11.34 5.21-15.47 6.5-6.16 1.92-9.56 2.32-19 2.25-6.66-.06-14.44-.77-18.5-1.7-3.85-.89-11.27-3.01-16.5-4.73-5.23-1.71-13.45-4.99-18.28-7.3-4.84-2.3-8.78-4.4-8.78-4.68s2.83-2.81 6.28-5.63c3.46-2.82 9.2-7.17 12.78-9.67 3.58-2.51 10.33-6.34 15-8.52s11.65-4.78 15.5-5.79c4.9-1.28 10.46-1.82 18.5-1.79q11.5.04 18 1.78c3.58.95 10.77 3.3 16 5.21 5.23 1.9 11.98 3.73 15 4.06 4.88.53 5.33.43 4-.9-.83-.82-7.35-5.23-14.5-9.79-7.15-4.57-16.83-10.51-21.5-13.21-4.67-2.69-10.3-5.27-12.5-5.72s-7.83-1.13-12.5-1.51c-4.67-.37-11.87-1.31-16-2.08-4.12-.77-10.87-2.56-15-3.96-4.12-1.4-10.87-4.38-15-6.61-4.12-2.24-10.12-6.16-13.32-8.72s-9.07-8.93-13.04-14.15-9.95-14.9-13.3-21.5-6.63-13.8-7.3-16c-.89-2.94-.91-4.26-.09-5 .74-.67 4.83-.57 12.33.3 6.17.72 16.17 1.98 22.22 2.79 6.05.82 12.13 1.73 13.5 2.04 1.38.31 6.33 1.68 11 3.06 4.67 1.37 11.88 4.24 16 6.36 4.13 2.13 10.39 6.47 13.92 9.66 3.52 3.18 8.07 8.04 10.1 10.79s5.04 7.7 6.69 11 4.53 10 9.79 23.77l9 6.2c4.95 3.41 12.49 8.31 16.75 10.87s7.98 4.66 8.25 4.66-.85-2.7-2.5-6-4.53-8.36-6.4-11.25c-1.88-2.89-4.78-8.62-6.45-12.75-1.67-4.12-3.57-9.97-4.23-13-.69-3.24-.96-9.2-.65-14.5.31-5.29 1.62-12.71 3.17-18 1.44-4.95 4.75-13.28 7.34-18.5 3.3-6.65 5.32-9.6 6.72-9.84 1.38-.23 3.31 1.17 6.22 4.5 2.31 2.66 6.26 8.22 8.76 12.34 2.51 4.13 6.12 12 8.03 17.5 3.1 8.93 3.47 11.12 3.48 20.5.01 7.51-.57 12.64-2.03 18-1.13 4.13-4.28 12.34-11.96 29l1.75 3.64c.96 2 3.77 5.12 6.25 6.92s10.58 6.22 18 9.81 18.9 8.36 25.5 10.61 17.4 5.42 24 7.04 14.92 3.25 25 4.28l-1.97-2.4c-1.09-1.32-3.11-3.69-4.5-5.26-1.39-1.58-6.8-5.66-12.03-9.07-5.3-3.46-11.86-8.83-14.84-12.14-2.94-3.26-6.42-8.18-7.74-10.93-1.31-2.75-3.3-8.6-4.42-13-1.28-5.05-2.01-11.13-1.98-16.5.02-4.67.88-13.22 1.9-19s2.36-11.74 2.97-13.25 1.78-2.75 2.61-2.75 4.09 1.64 7.25 3.64 8.23 5.54 11.25 7.85 7.46 6.19 9.86 8.61 5.75 6.43 7.44 8.9c1.7 2.47 4.34 7.2 5.86 10.5 1.53 3.3 3.22 9.15 3.76 13 .58 4.2.62 10 .11 14.5-.47 4.13-1.79 10.76-5.03 22l4.63 6.25c2.55 3.44 4.91 6.19 5.25 6.12.34-.08 12.1-3.56 26.12-7.73 14.02-4.18 30.9-9.03 37.5-10.78 6.6-1.74 21.82-5.47 55.66-13.36l2.47-7c1.36-3.85 3.68-9.21 5.17-11.92 1.48-2.7 4.55-6.98 6.81-9.5s6.31-5.79 9-7.27 7.81-3.39 11.39-4.25c3.58-.85 11.9-1.84 18.5-2.2 8.97-.48 13.01-1.14 16-2.62 2.2-1.09 10.97-6.17 19.5-11.29s16.34-9.91 17.37-10.63c1.74-1.24 1.51-1.67-3.59-6.82-3.45-3.49-6.77-8.25-9.05-13-1.99-4.12-4.71-11.33-6.05-16-1.35-4.67-2.72-10.41-3.06-12.75-.49-3.39-.31-4.25.88-4.25.83 0 3.09 1.01 5.03 2.25 1.95 1.24 3.74 2.03 4 1.75s-4.15-3.4-9.78-6.95c-5.64-3.55-15.42-10.12-21.75-14.61-6.33-4.48-15.1-11.01-19.5-14.5s-12.28-10.15-17.5-14.78c-5.22-4.64-13.9-12.99-19.29-18.55-5.38-5.56-13.62-14.84-18.32-20.61-4.69-5.77-14.47-19.23-21.71-29.89-7.25-10.67-13.52-19.56-13.93-19.75-.41-.2-.55.65-.3 1.89s1.38 4.5 2.52 7.25c1.13 2.75 1.94 5.11 1.79 5.24-.14.13-1.61-1.05-3.26-2.63-1.65-1.57-5.56-6.4-8.68-10.73-3.13-4.34-7.96-11.71-10.75-16.38s-7.6-14.12-10.69-21c-3.1-6.87-7.41-17.45-9.58-23.5s-5.23-16.4-6.8-23-3.67-16.95-4.66-23c-1.34-8.12-1.81-16.37-1.79-31.5.01-15.45.46-22.96 1.84-30.5 1-5.5 3.1-14.95 4.66-21s4.72-16.4 7.03-23 5.76-15.37 7.68-19.5c1.91-4.12 7.88-16.73 13.26-28 5.37-11.27 11.06-24.33 12.63-29 2.34-6.97 2.85-10.21 2.85-18 0-8.42-.3-10.01-2.61-14-1.43-2.48-4.36-5.98-6.5-7.78-2.14-1.81-6.14-3.89-8.89-4.63s-23-2.8-45-4.59c-22-1.78-47.65-3.86-57-4.61s-30.5-1.65-47-2.01c-19.45-.42-35.63-.24-46 .52-8.8.64-22.3 2.07-30 3.17-7.7 1.11-19.62 3.39-26.5 5.08-6.87 1.69-16.1 4.39-20.5 6.01s-11.15 4.81-15 7.08-9.42 6.41-12.37 9.2c-2.96 2.78-7.06 7.54-9.11 10.56-2.06 3.02-4.49 6.17-5.41 7-1.49 1.34-1.9 1.27-3.89-.67-1.22-1.19-2.99-4.56-3.92-7.5-.94-2.93-2.23-9.38-2.88-14.33-.7-5.3-.96-14.14-.63-21.5.31-6.87 1.51-17.23 2.69-23 1.17-5.77 3.93-15.9 6.12-22.5 2.2-6.6 6.49-16.73 9.55-22.5 3.05-5.77 8.37-14.55 11.82-19.5 3.44-4.95 10.71-13.67 16.15-19.38 5.43-5.71 13.71-13.4 18.38-17.09s11.88-8.95 16-11.69c4.13-2.73 11.1-7.02 15.5-9.54s12.05-6.46 17-8.76 14.17-6.23 20.5-8.73c6.33-2.51 17.13-6.31 24-8.44 6.88-2.14 17.45-5.22 23.5-6.85s16.85-4.29 24-5.9c7.15-1.62 19.98-4.09 28.5-5.49 8.52-1.41 22.25-3.27 30.5-4.14 8.25-.88 28.27-1.86 44.5-2.18 19.22-.39 35.25-.17 46 .62 9.08.67 20.33 1.87 25 2.67s10.08 1.92 12 2.49 5.18 1.8 7.23 2.72c3.46 1.56 3.87 1.57 5.5.06.97-.9 3.68-2.59 6.02-3.75 2.34-1.17 7.06-2.85 10.5-3.74 3.44-.9 9.4-1.97 13.25-2.39s10.6-.57 15-.33M339 85.05c-7.42.61-18 1.73-23.5 2.5s-13.94 2.08-18.75 2.92-16.74 3.37-26.5 5.61c-9.76 2.25-24.5 6.04-32.75 8.44-8.25 2.39-18.83 5.7-23.5 7.35s-13.9 5.31-20.5 8.12c-6.6 2.82-16.27 7.39-21.5 10.17-5.23 2.77-13.1 7.44-17.5 10.37s-10.25 7.35-13 9.81l-5 4.48c9.05-3.01 14.59-3.87 18.75-3.93 5.13-.08 8.57.45 11.75 1.81 2.48 1.06 6.46 3.69 8.85 5.86 2.48 2.25 5.56 6.52 7.17 9.94 1.55 3.3 3.35 8.93 3.99 12.5.65 3.61.87 8.72.5 11.5-.38 2.75-1.64 7.48-2.8 10.5-1.17 3.02-3.04 6.51-4.16 7.74-1.22 1.33-6.89 3.89-14.05 6.34-6.6 2.26-16.95 6.49-23 9.41s-14.6 7.67-19 10.54c-4.4 2.88-11.87 9.11-16.6 13.85s-9.12 9.63-9.75 10.87c-.71 1.38 2.21-.48 7.6-4.84 4.81-3.9 13.02-9.62 18.25-12.72s15.13-8.06 22-11.02c6.88-2.96 17.23-6.95 23-8.86s16.8-5 24.5-6.86 21.88-4.74 31.5-6.39c9.63-1.65 22.9-3.68 29.5-4.52 6.6-.83 19.2-2.18 28-2.99 8.8-.82 26.58-2 39.5-2.64 13.42-.67 33.15-.9 46-.55 12.38.34 32.4 1.16 44.5 1.83 18.87 1.03 22.49 1 25.44-.24 1.89-.8 4.25-2.8 5.25-4.45 1.26-2.1 1.8-5.02 1.81-9.75 0-3.71-.69-11.36-1.53-17-.85-5.64-1.95-16.55-2.46-24.25-.55-8.35-.57-19.05-.04-26.5.49-6.87 1.87-16.32 3.07-21 1.2-4.67 2.35-9.51 2.57-10.75.29-1.66-.26-2.51-2.11-3.25-1.37-.55-4.19-.94-6.25-.87s-19.73-.1-39.25-.39-37.98-.36-41-.16-11.58.86-19 1.47m127.39 26.45c-1.35 6.77-1.8 13.94-1.82 29-.02 11 .55 26.75 1.26 35 1.08 12.51 1.07 15.75-.05 19.5-.75 2.48-2.98 6.52-4.95 9-1.98 2.48-5.04 8.1-6.79 12.5s-4.47 10.25-6.05 13-5.27 7.32-8.18 10.16c-2.92 2.83-8.01 6.88-11.31 9s-9.94 5.2-14.75 6.84c-4.82 1.65-8.76 3.34-8.75 3.75 0 .41 1.01.74 2.25.74 1.24-.01 4.69 1.23 7.68 2.75s6.69 4.34 8.22 6.26c1.54 1.92 3.35 5.52 4.02 8 .68 2.48 1.17 7.88 1.08 12-.08 4.13-.68 9.75-1.32 12.5-.65 2.75-3.2 9.95-5.67 16s-7.85 17.98-11.96 26.5c-4.1 8.52-9.28 20-11.5 25.5-2.23 5.5-5.58 14.73-7.45 20.5s-4.26 15.67-5.31 22-2.2 14.88-2.54 19c-.35 4.13-.12 12.23.51 18 .89 8.12 2.17 13.22 5.66 22.5 2.48 6.6 6.6 15.53 9.17 19.84l4.66 7.85 1-24.69c4.04 8.52 7.1 13.48 9.41 16.5s6.31 7.09 8.89 9.04c2.59 1.94 7.62 4.53 11.2 5.76 3.58 1.22 7.96 2.21 9.75 2.21L446 508c1.55-10.85 2.56-14.24 3.25-14.54.69-.29 3.28.37 5.75 1.48 2.71 1.21 6.69 2.03 10 2.04 4.58.02 6.58-.6 12-3.76 3.58-2.09 9.2-5.76 12.5-8.17s9.6-8.02 14.01-12.46c4.41-4.45 10.35-11.24 13.22-15.09 2.86-3.85 7.34-10.6 9.94-15 2.61-4.4 6.96-12.5 9.67-18 2.72-5.5 6.39-13.83 8.16-18.5 1.78-4.67 4.48-10.98 6.01-14 1.52-3.02 3.93-7.08 5.35-9s6.45-8.23 11.19-14 11.32-14.1 14.63-18.5c3.32-4.4 8.32-11.83 11.13-16.5 2.8-4.67 6.97-12.77 9.25-18 2.29-5.23 5.54-14.67 7.23-21 2.92-10.9 3.08-12.48 3.1-30.5.02-17.55-.19-19.76-2.68-29-1.49-5.5-4.95-14.5-7.69-20-2.73-5.5-7.21-12.7-9.94-16s-7.51-8.02-10.62-10.5-8.88-6.32-12.81-8.54l-7.15-4.05c-.22-13.1-1.04-19.83-1.97-23.41-.94-3.57-3.35-9.61-5.37-13.41-2.05-3.87-6.41-9.7-9.91-13.25-4.73-4.8-8.5-7.44-15.5-10.85-5.09-2.48-12.85-5.43-17.25-6.56s-14.53-2.53-22.5-3.1c-11.56-.82-15.04-1.42-17.16-2.95-1.46-1.05-2.89-1.57-3.16-1.15-.28.42-1.31 4.82-2.29 9.77m162.49 681.19c-1.31 1.21-6.21 4.48-10.88 7.28s-10.08 5.57-12 6.16c-2.76.84-3.65.78-4.23-.28-.4-.74-.51-2.14-.25-3.1.27-.96.03-1.75-.52-1.75s-2.44 1.01-4.2 2.25c-1.77 1.24-9.93 6.3-18.15 11.25s-15.12 9.45-15.33 10c-.22.55 2.21 2 5.39 3.23 3.19 1.23 7.2 3.48 8.93 5 1.72 1.52 3.41 3.78 3.75 5.02.42 1.54 1.16 2.1 2.36 1.76.96-.27 9.4-1.17 18.75-2 9.35-.82 17.45-1.51 18-1.52s2.13-2.3 3.5-5.09c1.38-2.79 4.75-7.57 7.5-10.63 2.75-3.05 6.69-6.38 8.75-7.41 2.06-1.02 6.56-2.51 10-3.3s11.88-1.96 18.75-2.59c7.05-.65 13.48-1.77 14.75-2.56 1.24-.78 2.03-1.86 1.75-2.41s-2.86-1.51-5.75-2.14-8.62-2.15-12.75-3.38c-4.12-1.24-12-3.93-17.5-5.99s-10.9-4.37-12-5.13c-1.1-.75-2.33-1.37-2.74-1.37-.41.01-1.36 1.47-2.12 3.26s-2.45 4.24-3.76 5.44m107.89 25.28c.11.29 3.47 1.61 7.47 2.92 4.94 1.63 8.3 3.47 10.51 5.75 2.41 2.49 3.25 4.27 3.25 6.86 0 2.44-.83 4.38-2.75 6.41l-2.75 2.92c7.75.89 16.53 1.84 24.5 2.67 7.97.84 16.19 1.74 18.25 2.01l3.75.49c-3.94-5.81-5.29-8.29-5.54-9.25S792.1 837 791 837s-3.8-.9-6-2-7.94-4.99-12.75-8.65c-4.81-3.65-11.67-9.04-15.25-11.96-3.58-2.93-6.72-5.32-7-5.32s-3.41 1.89-6.97 4.19c-3.55 2.3-6.37 4.42-6.26 4.71M507.5 132.23c4.09.28 7.51 1.26 10.75 3.09 2.61 1.47 5.86 4.14 7.21 5.93s3.21 5.5 4.14 8.25c1.12 3.3 1.51 6.7 1.17 10-.29 2.75-1.44 6.8-2.56 9s-3.54 5.44-5.37 7.19c-1.84 1.76-5.37 4.11-7.84 5.23-2.58 1.17-6.64 2.04-9.5 2.05-3.2.01-6.8-.84-10-2.35-2.75-1.3-6.21-3.66-7.69-5.24-1.48-1.59-3.61-4.91-4.73-7.38-1.12-2.48-2.06-6.53-2.08-9-.02-2.48.66-6.53 1.52-9 .86-2.48 2.75-6.14 4.21-8.14 1.52-2.08 5.26-5.02 8.71-6.84 5.3-2.79 6.81-3.14 12.06-2.79m-8.7 16.35c.09 1.06.74 2.49 1.43 3.19.7.69 3.09 1.26 5.32 1.25s4.6-.58 5.27-1.27 1.21-2.38 1.21-3.75c0-1.38-.57-3.07-1.26-3.77-.7-.69-2.89-1.26-4.87-1.25-2.14.01-4.35.76-5.43 1.85-1.01 1-1.76 2.69-1.67 3.75" style="opacity:1;fill:#050604"/></svg>